<svg class="rich-terminal" viewBox="0 0 750 538.0" xmlns="http://www.w3.org/2000/svg">
    <!-- Generated with Rich https://www.textualize.io -->
    <style>

    @font-face {
        font-family: "Fira Code";
        src: local("FiraCode-Regular"),
                url("https://cdnjs.cloudflare.com/ajax/libs/firacode/6.2.0/woff2/FiraCode-Regular.woff2") format("woff2"),
                url("https://cdnjs.cloudflare.com/ajax/libs/firacode/6.2.0/woff/FiraCode-Regular.woff") format("woff");
        font-style: normal;
        font-weight: 400;
    }
    @font-face {
        font-family: "Fira Code";
        src: local("FiraCode-Bold"),
                url("https://cdnjs.cloudflare.com/ajax/libs/firacode/6.2.0/woff2/FiraCode-Bold.woff2") format("woff2"),
                url("https://cdnjs.cloudflare.com/ajax/libs/firacode/6.2.0/woff/FiraCode-Bold.woff") format("woff");
        font-style: bold;
        font-weight: 700;
    }

    .terminal-2305661572-matrix {
        font-family: Fira Code, monospace;
        font-size: 20px;
        line-height: 24.4px;
        font-variant-east-asian: full-width;
    }

    .terminal-2305661572-title {
        font-size: 18px;
        font-weight: bold;
        font-family: arial;
    }

    .terminal-2305661572-r1 { fill: #fff8dc;font-weight: bold }
.terminal-2305661572-r2 { fill: #98e024;font-weight: bold }
.terminal-2305661572-r3 { fill: #c5c8c6 }
.terminal-2305661572-r4 { fill: #e0e0e0 }
.terminal-2305661572-r5 { fill: #9d65ff;font-weight: bold }
.terminal-2305661572-r6 { fill: #fd971f }
.terminal-2305661572-r7 { fill: #fd971f;font-weight: bold }
    </style>

    <defs>
    <clipPath id="terminal-2305661572-clip-terminal">
      <rect x="0" y="0" width="731.0" height="487.0" />
    </clipPath>
    <clipPath id="terminal-2305661572-line-0">
    <rect x="0" y="1.5" width="732" height="24.65"/>
            </clipPath>
<clipPath id="terminal-2305661572-line-1">
    <rect x="0" y="25.9" width="732" height="24.65"/>
            </clipPath>
<clipPath id="terminal-2305661572-line-2">
    <rect x="0" y="50.3" width="732" height="24.65"/>
            </clipPath>
<clipPath id="terminal-2305661572-line-3">
    <rect x="0" y="74.7" width="732" height="24.65"/>
            </clipPath>
<clipPath id="terminal-2305661572-line-4">
    <rect x="0" y="99.1" width="732" height="24.65"/>
            </clipPath>
<clipPath id="terminal-2305661572-line-5">
    <rect x="0" y="123.5" width="732" height="24.65"/>
            </clipPath>
<clipPath id="terminal-2305661572-line-6">
    <rect x="0" y="147.9" width="732" height="24.65"/>
            </clipPath>
<clipPath id="terminal-2305661572-line-7">
    <rect x="0" y="172.3" width="732" height="24.65"/>
            </clipPath>
<clipPath id="terminal-2305661572-line-8">
    <rect x="0" y="196.7" width="732" height="24.65"/>
            </clipPath>
<clipPath id="terminal-2305661572-line-9">
    <rect x="0" y="221.1" width="732" height="24.65"/>
            </clipPath>
<clipPath id="terminal-2305661572-line-10">
    <rect x="0" y="245.5" width="732" height="24.65"/>
            </clipPath>
<clipPath id="terminal-2305661572-line-11">
    <rect x="0" y="269.9" width="732" height="24.65"/>
            </clipPath>
<clipPath id="terminal-2305661572-line-12">
    <rect x="0" y="294.3" width="732" height="24.65"/>
            </clipPath>
<clipPath id="terminal-2305661572-line-13">
    <rect x="0" y="318.7" width="732" height="24.65"/>
            </clipPath>
<clipPath id="terminal-2305661572-line-14">
    <rect x="0" y="343.1" width="732" height="24.65"/>
            </clipPath>
<clipPath id="terminal-2305661572-line-15">
    <rect x="0" y="367.5" width="732" height="24.65"/>
            </clipPath>
<clipPath id="terminal-2305661572-line-16">
    <rect x="0" y="391.9" width="732" height="24.65"/>
            </clipPath>
<clipPath id="terminal-2305661572-line-17">
    <rect x="0" y="416.3" width="732" height="24.65"/>
            </clipPath>
<clipPath id="terminal-2305661572-line-18">
    <rect x="0" y="440.7" width="732" height="24.65"/>
            </clipPath>
    </defs>

    <rect fill="#292929" stroke="rgba(255,255,255,0.35)" stroke-width="1" x="1" y="1" width="748" height="536" rx="8"/>
            <g transform="translate(26,22)">
            <circle cx="0" cy="0" r="7" fill="#ff5f57"/>
            <circle cx="22" cy="0" r="7" fill="#febc2e"/>
            <circle cx="44" cy="0" r="7" fill="#28c840"/>
            </g>
        
    <g transform="translate(9, 41)" clip-path="url(#terminal-2305661572-clip-terminal)">
    <rect fill="#2e2e2e" x="0" y="1.5" width="195.2" height="24.65" shape-rendering="crispEdges"/><rect fill="#2e2e2e" x="195.2" y="1.5" width="12.2" height="24.65" shape-rendering="crispEdges"/><rect fill="#2e2e2e" x="207.4" y="1.5" width="524.6" height="24.65" shape-rendering="crispEdges"/><rect fill="#2e2e2e" x="0" y="25.9" width="24.4" height="24.65" shape-rendering="crispEdges"/><rect fill="#2e2e2e" x="24.4" y="25.9" width="97.6" height="24.65" shape-rendering="crispEdges"/><rect fill="#2e2e2e" x="122" y="25.9" width="24.4" height="24.65" shape-rendering="crispEdges"/><rect fill="#2e2e2e" x="146.4" y="25.9" width="24.4" height="24.65" shape-rendering="crispEdges"/><rect fill="#2e2e2e" x="170.8" y="25.9" width="561.2" height="24.65" shape-rendering="crispEdges"/><rect fill="#2e2e2e" x="0" y="50.3" width="24.4" height="24.65" shape-rendering="crispEdges"/><rect fill="#2e2e2e" x="24.4" y="50.3" width="48.8" height="24.65" shape-rendering="crispEdges"/><rect fill="#2e2e2e" x="73.2" y="50.3" width="24.4" height="24.65" shape-rendering="crispEdges"/><rect fill="#2e2e2e" x="97.6" y="50.3" width="244" height="24.65" shape-rendering="crispEdges"/><rect fill="#2e2e2e" x="341.6" y="50.3" width="390.4" height="24.65" shape-rendering="crispEdges"/><rect fill="#2e2e2e" x="0" y="74.7" width="24.4" height="24.65" shape-rendering="crispEdges"/><rect fill="#2e2e2e" x="24.4" y="74.7" width="85.4" height="24.65" shape-rendering="crispEdges"/><rect fill="#2e2e2e" x="109.8" y="74.7" width="24.4" height="24.65" shape-rendering="crispEdges"/><rect fill="#2e2e2e" x="134.2" y="74.7" width="195.2" height="24.65" shape-rendering="crispEdges"/><rect fill="#2e2e2e" x="329.4" y="74.7" width="402.6" height="24.65" shape-rendering="crispEdges"/><rect fill="#2e2e2e" x="0" y="99.1" width="24.4" height="24.65" shape-rendering="crispEdges"/><rect fill="#2e2e2e" x="24.4" y="99.1" width="195.2" height="24.65" shape-rendering="crispEdges"/><rect fill="#2e2e2e" x="219.6" y="99.1" width="24.4" height="24.65" shape-rendering="crispEdges"/><rect fill="#2e2e2e" x="244" y="99.1" width="195.2" height="24.65" shape-rendering="crispEdges"/><rect fill="#2e2e2e" x="439.2" y="99.1" width="292.8" height="24.65" shape-rendering="crispEdges"/><rect fill="#2e2e2e" x="0" y="123.5" width="24.4" height="24.65" shape-rendering="crispEdges"/><rect fill="#2e2e2e" x="24.4" y="123.5" width="183" height="24.65" shape-rendering="crispEdges"/><rect fill="#2e2e2e" x="207.4" y="123.5" width="24.4" height="24.65" shape-rendering="crispEdges"/><rect fill="#2e2e2e" x="231.8" y="123.5" width="195.2" height="24.65" shape-rendering="crispEdges"/><rect fill="#2e2e2e" x="427" y="123.5" width="305" height="24.65" shape-rendering="crispEdges"/><rect fill="#2e2e2e" x="0" y="147.9" width="24.4" height="24.65" shape-rendering="crispEdges"/><rect fill="#2e2e2e" x="24.4" y="147.9" width="158.6" height="24.65" shape-rendering="crispEdges"/><rect fill="#2e2e2e" x="183" y="147.9" width="24.4" height="24.65" shape-rendering="crispEdges"/><rect fill="#2e2e2e" x="207.4" y="147.9" width="109.8" height="24.65" shape-rendering="crispEdges"/><rect fill="#2e2e2e" x="317.2" y="147.9" width="414.8" height="24.65" shape-rendering="crispEdges"/><rect fill="#2e2e2e" x="0" y="172.3" width="24.4" height="24.65" shape-rendering="crispEdges"/><rect fill="#2e2e2e" x="24.4" y="172.3" width="109.8" height="24.65" shape-rendering="crispEdges"/><rect fill="#2e2e2e" x="134.2" y="172.3" width="24.4" height="24.65" shape-rendering="crispEdges"/><rect fill="#2e2e2e" x="158.6" y="172.3" width="73.2" height="24.65" shape-rendering="crispEdges"/><rect fill="#2e2e2e" x="231.8" y="172.3" width="500.2" height="24.65" shape-rendering="crispEdges"/><rect fill="#2e2e2e" x="0" y="196.7" width="24.4" height="24.65" shape-rendering="crispEdges"/><rect fill="#2e2e2e" x="24.4" y="196.7" width="97.6" height="24.65" shape-rendering="crispEdges"/><rect fill="#2e2e2e" x="122" y="196.7" width="24.4" height="24.65" shape-rendering="crispEdges"/><rect fill="#2e2e2e" x="146.4" y="196.7" width="97.6" height="24.65" shape-rendering="crispEdges"/><rect fill="#2e2e2e" x="244" y="196.7" width="488" height="24.65" shape-rendering="crispEdges"/><rect fill="#2e2e2e" x="0" y="221.1" width="24.4" height="24.65" shape-rendering="crispEdges"/><rect fill="#2e2e2e" x="24.4" y="221.1" width="48.8" height="24.65" shape-rendering="crispEdges"/><rect fill="#2e2e2e" x="73.2" y="221.1" width="24.4" height="24.65" shape-rendering="crispEdges"/><rect fill="#2e2e2e" x="97.6" y="221.1" width="195.2" height="24.65" shape-rendering="crispEdges"/><rect fill="#2e2e2e" x="292.8" y="221.1" width="439.2" height="24.65" shape-rendering="crispEdges"/><rect fill="#2e2e2e" x="0" y="245.5" width="24.4" height="24.65" shape-rendering="crispEdges"/><rect fill="#2e2e2e" x="24.4" y="245.5" width="183" height="24.65" shape-rendering="crispEdges"/><rect fill="#2e2e2e" x="207.4" y="245.5" width="24.4" height="24.65" shape-rendering="crispEdges"/><rect fill="#2e2e2e" x="231.8" y="245.5" width="12.2" height="24.65" shape-rendering="crispEdges"/><rect fill="#2e2e2e" x="244" y="245.5" width="488" height="24.65" shape-rendering="crispEdges"/><rect fill="#2e2e2e" x="0" y="269.9" width="732" height="24.65" shape-rendering="crispEdges"/><rect fill="#2e2e2e" x="0" y="294.3" width="36.6" height="24.65" shape-rendering="crispEdges"/><rect fill="#2e2e2e" x="36.6" y="294.3" width="317.2" height="24.65" shape-rendering="crispEdges"/><rect fill="#2e2e2e" x="353.8" y="294.3" width="378.2" height="24.65" shape-rendering="crispEdges"/><rect fill="#2e2e2e" x="0" y="318.7" width="732" height="24.65" shape-rendering="crispEdges"/><rect fill="#2e2e2e" x="0" y="343.1" width="732" height="24.65" shape-rendering="crispEdges"/><rect fill="#2e2e2e" x="0" y="367.5" width="732" height="24.65" shape-rendering="crispEdges"/><rect fill="#2e2e2e" x="0" y="391.9" width="732" height="24.65" shape-rendering="crispEdges"/><rect fill="#2e2e2e" x="0" y="416.3" width="732" height="24.65" shape-rendering="crispEdges"/><rect fill="#2e2e2e" x="0" y="440.7" width="732" height="24.65" shape-rendering="crispEdges"/><rect fill="#2e2e2e" x="0" y="465.1" width="732" height="24.65" shape-rendering="crispEdges"/>
    <g class="terminal-2305661572-matrix">
    <text class="terminal-2305661572-r1" x="0" y="20" textLength="195.2" clip-path="url(#terminal-2305661572-line-0)">Details&#160;for&#160;tag&#160;</text><text class="terminal-2305661572-r2" x="195.2" y="20" textLength="12.2" clip-path="url(#terminal-2305661572-line-0)">a</text><text class="terminal-2305661572-r3" x="732" y="20" textLength="12.2" clip-path="url(#terminal-2305661572-line-0)">
</text><text class="terminal-2305661572-r5" x="24.4" y="44.4" textLength="97.6" clip-path="url(#terminal-2305661572-line-1)">chore_id</text><text class="terminal-2305661572-r4" x="122" y="44.4" textLength="24.4" clip-path="url(#terminal-2305661572-line-1)">:&#160;</text><text class="terminal-2305661572-r6" x="146.4" y="44.4" textLength="24.4" clip-path="url(#terminal-2305661572-line-1)">12</text><text class="terminal-2305661572-r3" x="732" y="44.4" textLength="12.2" clip-path="url(#terminal-2305661572-line-1)">
</text><text class="terminal-2305661572-r5" x="24.4" y="68.8" textLength="48.8" clip-path="url(#terminal-2305661572-line-2)">name</text><text class="terminal-2305661572-r4" x="73.2" y="68.8" textLength="24.4" clip-path="url(#terminal-2305661572-line-2)">:&#160;</text><text class="terminal-2305661572-r6" x="97.6" y="68.8" textLength="244" clip-path="url(#terminal-2305661572-line-2)">Tempora&#160;sit&#160;sit&#160;[12]</text><text class="terminal-2305661572-r3" x="732" y="68.8" textLength="12.2" clip-path="url(#terminal-2305661572-line-2)">
</text><text class="terminal-2305661572-r5" x="24.4" y="93.2" textLength="85.4" clip-path="url(#terminal-2305661572-line-3)">created</text><text class="terminal-2305661572-r4" x="109.8" y="93.2" textLength="24.4" clip-path="url(#terminal-2305661572-line-3)">:&#160;</text><text class="terminal-2305661572-r6" x="134.2" y="93.2" textLength="195.2" clip-path="url(#terminal-2305661572-line-3)">2024-12-08&#160;20:52</text><text class="terminal-2305661572-r3" x="732" y="93.2" textLength="12.2" clip-path="url(#terminal-2305661572-line-3)">
</text><text class="terminal-2305661572-r5" x="24.4" y="117.6" textLength="195.2" clip-path="url(#terminal-2305661572-line-4)">first_completion</text><text class="terminal-2305661572-r4" x="219.6" y="117.6" textLength="24.4" clip-path="url(#terminal-2305661572-line-4)">:&#160;</text><text class="terminal-2305661572-r6" x="244" y="117.6" textLength="195.2" clip-path="url(#terminal-2305661572-line-4)">2024-12-08&#160;20:52</text><text class="terminal-2305661572-r3" x="732" y="117.6" textLength="12.2" clip-path="url(#terminal-2305661572-line-4)">
</text><text class="terminal-2305661572-r5" x="24.4" y="142" textLength="183" clip-path="url(#terminal-2305661572-line-5)">last_completion</text><text class="terminal-2305661572-r4" x="207.4" y="142" textLength="24.4" clip-path="url(#terminal-2305661572-line-5)">:&#160;</text><text class="terminal-2305661572-r6" x="231.8" y="142" textLength="195.2" clip-path="url(#terminal-2305661572-line-5)">2025-01-19&#160;01:50</text><text class="terminal-2305661572-r3" x="732" y="142" textLength="12.2" clip-path="url(#terminal-2305661572-line-5)">
</text><text class="terminal-2305661572-r5" x="24.4" y="166.4" textLength="158.6" clip-path="url(#terminal-2305661572-line-6)">mean_interval</text><text class="terminal-2305661572-r4" x="183" y="166.4" textLength="24.4" clip-path="url(#terminal-2305661572-line-6)">:&#160;</text><text class="terminal-2305661572-r6" x="207.4" y="166.4" textLength="109.8" clip-path="url(#terminal-2305661572-line-6)">13d17h39m</text><text class="terminal-2305661572-r3" x="732" y="166.4" textLength="12.2" clip-path="url(#terminal-2305661572-line-6)">
</text><text class="terminal-2305661572-r5" x="24.4" y="190.8" textLength="109.8" clip-path="url(#terminal-2305661572-line-7)">mad_minus</text><text class="terminal-2305661572-r4" x="134.2" y="190.8" textLength="24.4" clip-path="url(#terminal-2305661572-line-7)">:&#160;</text><text class="terminal-2305661572-r6" x="158.6" y="190.8" textLength="73.2" clip-path="url(#terminal-2305661572-line-7)">19h59m</text><text class="terminal-2305661572-r3" x="732" y="190.8" textLength="12.2" clip-path="url(#terminal-2305661572-line-7)">
</text><text class="terminal-2305661572-r5" x="24.4" y="215.2" textLength="97.6" clip-path="url(#terminal-2305661572-line-8)">mad_plus</text><text class="terminal-2305661572-r4" x="122" y="215.2" textLength="24.4" clip-path="url(#terminal-2305661572-line-8)">:&#160;</text><text class="terminal-2305661572-r6" x="146.4" y="215.2" textLength="97.6" clip-path="url(#terminal-2305661572-line-8)">1d15h59m</text><text class="terminal-2305661572-r3" x="732" y="215.2" textLength="12.2" clip-path="url(#terminal-2305661572-line-8)">
</text><text class="terminal-2305661572-r5" x="24.4" y="239.6" textLength="48.8" clip-path="url(#terminal-2305661572-line-9)">next</text><text class="terminal-2305661572-r4" x="73.2" y="239.6" textLength="24.4" clip-path="url(#terminal-2305661572-line-9)">:&#160;</text><text class="terminal-2305661572-r6" x="97.6" y="239.6" textLength="195.2" clip-path="url(#terminal-2305661572-line-9)">2025-02-01&#160;19:29</text><text class="terminal-2305661572-r3" x="732" y="239.6" textLength="12.2" clip-path="url(#terminal-2305661572-line-9)">
</text><text class="terminal-2305661572-r5" x="24.4" y="264" textLength="183" clip-path="url(#terminal-2305661572-line-10)">num_completions</text><text class="terminal-2305661572-r4" x="207.4" y="264" textLength="24.4" clip-path="url(#terminal-2305661572-line-10)">:&#160;</text><text class="terminal-2305661572-r6" x="231.8" y="264" textLength="12.2" clip-path="url(#terminal-2305661572-line-10)">3</text><text class="terminal-2305661572-r3" x="732" y="264" textLength="12.2" clip-path="url(#terminal-2305661572-line-10)">
</text><text class="terminal-2305661572-r3" x="732" y="288.4" textLength="12.2" clip-path="url(#terminal-2305661572-line-11)">
</text><text class="terminal-2305661572-r7" x="0" y="312.8" textLength="36.6" clip-path="url(#terminal-2305661572-line-12)">ESC</text><text class="terminal-2305661572-r4" x="36.6" y="312.8" textLength="317.2" clip-path="url(#terminal-2305661572-line-12)">&#160;return&#160;to&#160;previous&#160;screen</text><text class="terminal-2305661572-r3" x="732" y="312.8" textLength="12.2" clip-path="url(#terminal-2305661572-line-12)">
</text><text class="terminal-2305661572-r3" x="732" y="337.2" textLength="12.2" clip-path="url(#terminal-2305661572-line-13)">
</text><text class="terminal-2305661572-r3" x="732" y="361.6" textLength="12.2" clip-path="url(#terminal-2305661572-line-14)">
</text><text class="terminal-2305661572-r3" x="732" y="386" textLength="12.2" clip-path="url(#terminal-2305661572-line-15)">
</text><text class="terminal-2305661572-r3" x="732" y="410.4" textLength="12.2" clip-path="url(#terminal-2305661572-line-16)">
</text><text class="terminal-2305661572-r3" x="732" y="434.8" textLength="12.2" clip-path="url(#terminal-2305661572-line-17)">
</text><text class="terminal-2305661572-r3" x="732" y="459.2" textLength="12.2" clip-path="url(#terminal-2305661572-line-18)">
</text>
    </g>
    </g>
</svg>
