<svg class="rich-terminal" viewBox="0 0 750 708.8" xmlns="http://www.w3.org/2000/svg">
    <!-- Generated with Rich https://www.textualize.io -->
    <style>

    @font-face {
        font-family: "Fira Code";
        src: local("FiraCode-Regular"),
                url("https://cdnjs.cloudflare.com/ajax/libs/firacode/6.2.0/woff2/FiraCode-Regular.woff2") format("woff2"),
                url("https://cdnjs.cloudflare.com/ajax/libs/firacode/6.2.0/woff/FiraCode-Regular.woff") format("woff");
        font-style: normal;
        font-weight: 400;
    }
    @font-face {
        font-family: "Fira Code";
        src: local("FiraCode-Bold"),
                url("https://cdnjs.cloudflare.com/ajax/libs/firacode/6.2.0/woff2/FiraCode-Bold.woff2") format("woff2"),
                url("https://cdnjs.cloudflare.com/ajax/libs/firacode/6.2.0/woff/FiraCode-Bold.woff") format("woff");
        font-style: bold;
        font-weight: 700;
    }

    .terminal-734249508-matrix {
        font-family: Fira Code, monospace;
        font-size: 20px;
        line-height: 24.4px;
        font-variant-east-asian: full-width;
    }

    .terminal-734249508-title {
        font-size: 18px;
        font-weight: bold;
        font-family: arial;
    }

    .terminal-734249508-r1 { fill: #fff8dc;font-weight: bold }
.terminal-734249508-r2 { fill: #c5c8c6 }
.terminal-734249508-r3 { fill: #fff8dc }
.terminal-734249508-r4 { fill: #888a89 }
.terminal-734249508-r5 { fill: #4682b4 }
.terminal-734249508-r6 { fill: #ffb920 }
.terminal-734249508-r7 { fill: #ffff00 }
.terminal-734249508-r8 { fill: #6495ed }
.terminal-734249508-r9 { fill: #98fb98 }
.terminal-734249508-r10 { fill: #e0e0e0 }
.terminal-734249508-r11 { fill: #fd971f;font-weight: bold }
    </style>

    <defs>
    <clipPath id="terminal-734249508-clip-terminal">
      <rect x="0" y="0" width="731.0" height="657.8" />
    </clipPath>
    <clipPath id="terminal-734249508-line-0">
    <rect x="0" y="1.5" width="732" height="24.65"/>
            </clipPath>
<clipPath id="terminal-734249508-line-1">
    <rect x="0" y="25.9" width="732" height="24.65"/>
            </clipPath>
<clipPath id="terminal-734249508-line-2">
    <rect x="0" y="50.3" width="732" height="24.65"/>
            </clipPath>
<clipPath id="terminal-734249508-line-3">
    <rect x="0" y="74.7" width="732" height="24.65"/>
            </clipPath>
<clipPath id="terminal-734249508-line-4">
    <rect x="0" y="99.1" width="732" height="24.65"/>
            </clipPath>
<clipPath id="terminal-734249508-line-5">
    <rect x="0" y="123.5" width="732" height="24.65"/>
            </clipPath>
<clipPath id="terminal-734249508-line-6">
    <rect x="0" y="147.9" width="732" height="24.65"/>
            </clipPath>
<clipPath id="terminal-734249508-line-7">
    <rect x="0" y="172.3" width="732" height="24.65"/>
            </clipPath>
<clipPath id="terminal-734249508-line-8">
    <rect x="0" y="196.7" width="732" height="24.65"/>
            </clipPath>
<clipPath id="terminal-734249508-line-9">
    <rect x="0" y="221.1" width="732" height="24.65"/>
            </clipPath>
<clipPath id="terminal-734249508-line-10">
    <rect x="0" y="245.5" width="732" height="24.65"/>
            </clipPath>
<clipPath id="terminal-734249508-line-11">
    <rect x="0" y="269.9" width="732" height="24.65"/>
            </clipPath>
<clipPath id="terminal-734249508-line-12">
    <rect x="0" y="294.3" width="732" height="24.65"/>
            </clipPath>
<clipPath id="terminal-734249508-line-13">
    <rect x="0" y="318.7" width="732" height="24.65"/>
            </clipPath>
<clipPath id="terminal-734249508-line-14">
    <rect x="0" y="343.1" width="732" height="24.65"/>
            </clipPath>
<clipPath id="terminal-734249508-line-15">
    <rect x="0" y="367.5" width="732" height="24.65"/>
            </clipPath>
<clipPath id="terminal-734249508-line-16">
    <rect x="0" y="391.9" width="732" height="24.65"/>
            </clipPath>
<clipPath id="terminal-734249508-line-17">
    <rect x="0" y="416.3" width="732" height="24.65"/>
            </clipPath>
<clipPath id="terminal-734249508-line-18">
    <rect x="0" y="440.7" width="732" height="24.65"/>
            </clipPath>
<clipPath id="terminal-734249508-line-19">
    <rect x="0" y="465.1" width="732" height="24.65"/>
            </clipPath>
<clipPath id="terminal-734249508-line-20">
    <rect x="0" y="489.5" width="732" height="24.65"/>
            </clipPath>
<clipPath id="terminal-734249508-line-21">
    <rect x="0" y="513.9" width="732" height="24.65"/>
            </clipPath>
<clipPath id="terminal-734249508-line-22">
    <rect x="0" y="538.3" width="732" height="24.65"/>
            </clipPath>
<clipPath id="terminal-734249508-line-23">
    <rect x="0" y="562.7" width="732" height="24.65"/>
            </clipPath>
<clipPath id="terminal-734249508-line-24">
    <rect x="0" y="587.1" width="732" height="24.65"/>
            </clipPath>
<clipPath id="terminal-734249508-line-25">
    <rect x="0" y="611.5" width="732" height="24.65"/>
            </clipPath>
    </defs>

    <rect fill="#292929" stroke="rgba(255,255,255,0.35)" stroke-width="1" x="1" y="1" width="748" height="706.8" rx="8"/>
            <g transform="translate(26,22)">
            <circle cx="0" cy="0" r="7" fill="#ff5f57"/>
            <circle cx="22" cy="0" r="7" fill="#febc2e"/>
            <circle cx="44" cy="0" r="7" fill="#28c840"/>
            </g>
        
    <g transform="translate(9, 41)" clip-path="url(#terminal-734249508-clip-terminal)">
    <rect fill="#2e2e2e" x="0" y="1.5" width="732" height="24.65" shape-rendering="crispEdges"/><rect fill="#2e2e2e" x="0" y="25.9" width="732" height="24.65" shape-rendering="crispEdges"/><rect fill="#2e2e2e" x="0" y="50.3" width="36.6" height="24.65" shape-rendering="crispEdges"/><rect fill="#2e2e2e" x="36.6" y="50.3" width="24.4" height="24.65" shape-rendering="crispEdges"/><rect fill="#2e2e2e" x="61" y="50.3" width="329.4" height="24.65" shape-rendering="crispEdges"/><rect fill="#2e2e2e" x="390.4" y="50.3" width="24.4" height="24.65" shape-rendering="crispEdges"/><rect fill="#2e2e2e" x="414.8" y="50.3" width="109.8" height="24.65" shape-rendering="crispEdges"/><rect fill="#2e2e2e" x="524.6" y="50.3" width="24.4" height="24.65" shape-rendering="crispEdges"/><rect fill="#2e2e2e" x="549" y="50.3" width="73.2" height="24.65" shape-rendering="crispEdges"/><rect fill="#2e2e2e" x="622.2" y="50.3" width="24.4" height="24.65" shape-rendering="crispEdges"/><rect fill="#2e2e2e" x="646.6" y="50.3" width="73.2" height="24.65" shape-rendering="crispEdges"/><rect fill="#2e2e2e" x="719.8" y="50.3" width="12.2" height="24.65" shape-rendering="crispEdges"/><rect fill="#2e2e2e" x="0" y="74.7" width="36.6" height="24.65" shape-rendering="crispEdges"/><rect fill="#2e2e2e" x="36.6" y="74.7" width="24.4" height="24.65" shape-rendering="crispEdges"/><rect fill="#2e2e2e" x="61" y="74.7" width="329.4" height="24.65" shape-rendering="crispEdges"/><rect fill="#2e2e2e" x="390.4" y="74.7" width="24.4" height="24.65" shape-rendering="crispEdges"/><rect fill="#2e2e2e" x="414.8" y="74.7" width="109.8" height="24.65" shape-rendering="crispEdges"/><rect fill="#2e2e2e" x="524.6" y="74.7" width="24.4" height="24.65" shape-rendering="crispEdges"/><rect fill="#2e2e2e" x="549" y="74.7" width="73.2" height="24.65" shape-rendering="crispEdges"/><rect fill="#2e2e2e" x="622.2" y="74.7" width="24.4" height="24.65" shape-rendering="crispEdges"/><rect fill="#2e2e2e" x="646.6" y="74.7" width="73.2" height="24.65" shape-rendering="crispEdges"/><rect fill="#2e2e2e" x="719.8" y="74.7" width="12.2" height="24.65" shape-rendering="crispEdges"/><rect fill="#2e2e2e" x="0" y="99.1" width="36.6" height="24.65" shape-rendering="crispEdges"/><rect fill="#2e2e2e" x="36.6" y="99.1" width="24.4" height="24.65" shape-rendering="crispEdges"/><rect fill="#2e2e2e" x="61" y="99.1" width="329.4" height="24.65" shape-rendering="crispEdges"/><rect fill="#2e2e2e" x="390.4" y="99.1" width="24.4" height="24.65" shape-rendering="crispEdges"/><rect fill="#2e2e2e" x="414.8" y="99.1" width="109.8" height="24.65" shape-rendering="crispEdges"/><rect fill="#2e2e2e" x="524.6" y="99.1" width="24.4" height="24.65" shape-rendering="crispEdges"/><rect fill="#2e2e2e" x="549" y="99.1" width="73.2" height="24.65" shape-rendering="crispEdges"/><rect fill="#2e2e2e" x="622.2" y="99.1" width="24.4" height="24.65" shape-rendering="crispEdges"/><rect fill="#2e2e2e" x="646.6" y="99.1" width="73.2" height="24.65" shape-rendering="crispEdges"/><rect fill="#2e2e2e" x="719.8" y="99.1" width="12.2" height="24.65" shape-rendering="crispEdges"/><rect fill="#2e2e2e" x="0" y="123.5" width="36.6" height="24.65" shape-rendering="crispEdges"/><rect fill="#2e2e2e" x="36.6" y="123.5" width="24.4" height="24.65" shape-rendering="crispEdges"/><rect fill="#2e2e2e" x="61" y="123.5" width="329.4" height="24.65" shape-rendering="crispEdges"/><rect fill="#2e2e2e" x="390.4" y="123.5" width="24.4" height="24.65" shape-rendering="crispEdges"/><rect fill="#2e2e2e" x="414.8" y="123.5" width="109.8" height="24.65" shape-rendering="crispEdges"/><rect fill="#2e2e2e" x="524.6" y="123.5" width="24.4" height="24.65" shape-rendering="crispEdges"/><rect fill="#2e2e2e" x="549" y="123.5" width="73.2" height="24.65" shape-rendering="crispEdges"/><rect fill="#2e2e2e" x="622.2" y="123.5" width="24.4" height="24.65" shape-rendering="crispEdges"/><rect fill="#2e2e2e" x="646.6" y="123.5" width="73.2" height="24.65" shape-rendering="crispEdges"/><rect fill="#2e2e2e" x="719.8" y="123.5" width="12.2" height="24.65" shape-rendering="crispEdges"/><rect fill="#2e2e2e" x="0" y="147.9" width="36.6" height="24.65" shape-rendering="crispEdges"/><rect fill="#2e2e2e" x="36.6" y="147.9" width="24.4" height="24.65" shape-rendering="crispEdges"/><rect fill="#2e2e2e" x="61" y="147.9" width="329.4" height="24.65" shape-rendering="crispEdges"/><rect fill="#2e2e2e" x="390.4" y="147.9" width="24.4" height="24.65" shape-rendering="crispEdges"/><rect fill="#2e2e2e" x="414.8" y="147.9" width="109.8" height="24.65" shape-rendering="crispEdges"/><rect fill="#2e2e2e" x="524.6" y="147.9" width="24.4" height="24.65" shape-rendering="crispEdges"/><rect fill="#2e2e2e" x="549" y="147.9" width="73.2" height="24.65" shape-rendering="crispEdges"/><rect fill="#2e2e2e" x="622.2" y="147.9" width="24.4" height="24.65" shape-rendering="crispEdges"/><rect fill="#2e2e2e" x="646.6" y="147.9" width="73.2" height="24.65" shape-rendering="crispEdges"/><rect fill="#2e2e2e" x="719.8" y="147.9" width="12.2" height="24.65" shape-rendering="crispEdges"/><rect fill="#2e2e2e" x="0" y="172.3" width="36.6" height="24.65" shape-rendering="crispEdges"/><rect fill="#2e2e2e" x="36.6" y="172.3" width="24.4" height="24.65" shape-rendering="crispEdges"/><rect fill="#2e2e2e" x="61" y="172.3" width="329.4" height="24.65" shape-rendering="crispEdges"/><rect fill="#2e2e2e" x="390.4" y="172.3" width="24.4" height="24.65" shape-rendering="crispEdges"/><rect fill="#2e2e2e" x="414.8" y="172.3" width="109.8" height="24.65" shape-rendering="crispEdges"/><rect fill="#2e2e2e" x="524.6" y="172.3" width="24.4" height="24.65" shape-rendering="crispEdges"/><rect fill="#2e2e2e" x="549" y="172.3" width="73.2" height="24.65" shape-rendering="crispEdges"/><rect fill="#2e2e2e" x="622.2" y="172.3" width="24.4" height="24.65" shape-rendering="crispEdges"/><rect fill="#2e2e2e" x="646.6" y="172.3" width="73.2" height="24.65" shape-rendering="crispEdges"/><rect fill="#2e2e2e" x="719.8" y="172.3" width="12.2" height="24.65" shape-rendering="crispEdges"/><rect fill="#2e2e2e" x="0" y="196.7" width="36.6" height="24.65" shape-rendering="crispEdges"/><rect fill="#2e2e2e" x="36.6" y="196.7" width="24.4" height="24.65" shape-rendering="crispEdges"/><rect fill="#2e2e2e" x="61" y="196.7" width="329.4" height="24.65" shape-rendering="crispEdges"/><rect fill="#2e2e2e" x="390.4" y="196.7" width="24.4" height="24.65" shape-rendering="crispEdges"/><rect fill="#2e2e2e" x="414.8" y="196.7" width="109.8" height="24.65" shape-rendering="crispEdges"/><rect fill="#2e2e2e" x="524.6" y="196.7" width="24.4" height="24.65" shape-rendering="crispEdges"/><rect fill="#2e2e2e" x="549" y="196.7" width="73.2" height="24.65" shape-rendering="crispEdges"/><rect fill="#2e2e2e" x="622.2" y="196.7" width="24.4" height="24.65" shape-rendering="crispEdges"/><rect fill="#2e2e2e" x="646.6" y="196.7" width="73.2" height="24.65" shape-rendering="crispEdges"/><rect fill="#2e2e2e" x="719.8" y="196.7" width="12.2" height="24.65" shape-rendering="crispEdges"/><rect fill="#2e2e2e" x="0" y="221.1" width="36.6" height="24.65" shape-rendering="crispEdges"/><rect fill="#2e2e2e" x="36.6" y="221.1" width="24.4" height="24.65" shape-rendering="crispEdges"/><rect fill="#2e2e2e" x="61" y="221.1" width="329.4" height="24.65" shape-rendering="crispEdges"/><rect fill="#2e2e2e" x="390.4" y="221.1" width="24.4" height="24.65" shape-rendering="crispEdges"/><rect fill="#2e2e2e" x="414.8" y="221.1" width="109.8" height="24.65" shape-rendering="crispEdges"/><rect fill="#2e2e2e" x="524.6" y="221.1" width="24.4" height="24.65" shape-rendering="crispEdges"/><rect fill="#2e2e2e" x="549" y="221.1" width="73.2" height="24.65" shape-rendering="crispEdges"/><rect fill="#2e2e2e" x="622.2" y="221.1" width="24.4" height="24.65" shape-rendering="crispEdges"/><rect fill="#2e2e2e" x="646.6" y="221.1" width="73.2" height="24.65" shape-rendering="crispEdges"/><rect fill="#2e2e2e" x="719.8" y="221.1" width="12.2" height="24.65" shape-rendering="crispEdges"/><rect fill="#2e2e2e" x="0" y="245.5" width="36.6" height="24.65" shape-rendering="crispEdges"/><rect fill="#2e2e2e" x="36.6" y="245.5" width="24.4" height="24.65" shape-rendering="crispEdges"/><rect fill="#2e2e2e" x="61" y="245.5" width="329.4" height="24.65" shape-rendering="crispEdges"/><rect fill="#2e2e2e" x="390.4" y="245.5" width="24.4" height="24.65" shape-rendering="crispEdges"/><rect fill="#2e2e2e" x="414.8" y="245.5" width="109.8" height="24.65" shape-rendering="crispEdges"/><rect fill="#2e2e2e" x="524.6" y="245.5" width="24.4" height="24.65" shape-rendering="crispEdges"/><rect fill="#2e2e2e" x="549" y="245.5" width="73.2" height="24.65" shape-rendering="crispEdges"/><rect fill="#2e2e2e" x="622.2" y="245.5" width="24.4" height="24.65" shape-rendering="crispEdges"/><rect fill="#2e2e2e" x="646.6" y="245.5" width="73.2" height="24.65" shape-rendering="crispEdges"/><rect fill="#2e2e2e" x="719.8" y="245.5" width="12.2" height="24.65" shape-rendering="crispEdges"/><rect fill="#2e2e2e" x="0" y="269.9" width="36.6" height="24.65" shape-rendering="crispEdges"/><rect fill="#2e2e2e" x="36.6" y="269.9" width="24.4" height="24.65" shape-rendering="crispEdges"/><rect fill="#2e2e2e" x="61" y="269.9" width="329.4" height="24.65" shape-rendering="crispEdges"/><rect fill="#2e2e2e" x="390.4" y="269.9" width="24.4" height="24.65" shape-rendering="crispEdges"/><rect fill="#2e2e2e" x="414.8" y="269.9" width="109.8" height="24.65" shape-rendering="crispEdges"/><rect fill="#2e2e2e" x="524.6" y="269.9" width="24.4" height="24.65" shape-rendering="crispEdges"/><rect fill="#2e2e2e" x="549" y="269.9" width="73.2" height="24.65" shape-rendering="crispEdges"/><rect fill="#2e2e2e" x="622.2" y="269.9" width="24.4" height="24.65" shape-rendering="crispEdges"/><rect fill="#2e2e2e" x="646.6" y="269.9" width="73.2" height="24.65" shape-rendering="crispEdges"/><rect fill="#2e2e2e" x="719.8" y="269.9" width="12.2" height="24.65" shape-rendering="crispEdges"/><rect fill="#2e2e2e" x="0" y="294.3" width="36.6" height="24.65" shape-rendering="crispEdges"/><rect fill="#2e2e2e" x="36.6" y="294.3" width="24.4" height="24.65" shape-rendering="crispEdges"/><rect fill="#2e2e2e" x="61" y="294.3" width="329.4" height="24.65" shape-rendering="crispEdges"/><rect fill="#2e2e2e" x="390.4" y="294.3" width="24.4" height="24.65" shape-rendering="crispEdges"/><rect fill="#2e2e2e" x="414.8" y="294.3" width="109.8" height="24.65" shape-rendering="crispEdges"/><rect fill="#2e2e2e" x="524.6" y="294.3" width="24.4" height="24.65" shape-rendering="crispEdges"/><rect fill="#2e2e2e" x="549" y="294.3" width="73.2" height="24.65" shape-rendering="crispEdges"/><rect fill="#2e2e2e" x="622.2" y="294.3" width="24.4" height="24.65" shape-rendering="crispEdges"/><rect fill="#2e2e2e" x="646.6" y="294.3" width="73.2" height="24.65" shape-rendering="crispEdges"/><rect fill="#2e2e2e" x="719.8" y="294.3" width="12.2" height="24.65" shape-rendering="crispEdges"/><rect fill="#2e2e2e" x="0" y="318.7" width="36.6" height="24.65" shape-rendering="crispEdges"/><rect fill="#2e2e2e" x="36.6" y="318.7" width="24.4" height="24.65" shape-rendering="crispEdges"/><rect fill="#2e2e2e" x="61" y="318.7" width="329.4" height="24.65" shape-rendering="crispEdges"/><rect fill="#2e2e2e" x="390.4" y="318.7" width="24.4" height="24.65" shape-rendering="crispEdges"/><rect fill="#2e2e2e" x="414.8" y="318.7" width="109.8" height="24.65" shape-rendering="crispEdges"/><rect fill="#2e2e2e" x="524.6" y="318.7" width="24.4" height="24.65" shape-rendering="crispEdges"/><rect fill="#2e2e2e" x="549" y="318.7" width="73.2" height="24.65" shape-rendering="crispEdges"/><rect fill="#2e2e2e" x="622.2" y="318.7" width="24.4" height="24.65" shape-rendering="crispEdges"/><rect fill="#2e2e2e" x="646.6" y="318.7" width="73.2" height="24.65" shape-rendering="crispEdges"/><rect fill="#2e2e2e" x="719.8" y="318.7" width="12.2" height="24.65" shape-rendering="crispEdges"/><rect fill="#2e2e2e" x="0" y="343.1" width="732" height="24.65" shape-rendering="crispEdges"/><rect fill="#2e2e2e" x="0" y="367.5" width="732" height="24.65" shape-rendering="crispEdges"/><rect fill="#2e2e2e" x="0" y="391.9" width="732" height="24.65" shape-rendering="crispEdges"/><rect fill="#2e2e2e" x="0" y="416.3" width="732" height="24.65" shape-rendering="crispEdges"/><rect fill="#2e2e2e" x="0" y="440.7" width="732" height="24.65" shape-rendering="crispEdges"/><rect fill="#2e2e2e" x="0" y="465.1" width="732" height="24.65" shape-rendering="crispEdges"/><rect fill="#2e2e2e" x="0" y="489.5" width="732" height="24.65" shape-rendering="crispEdges"/><rect fill="#2e2e2e" x="0" y="513.9" width="732" height="24.65" shape-rendering="crispEdges"/><rect fill="#2e2e2e" x="0" y="538.3" width="732" height="24.65" shape-rendering="crispEdges"/><rect fill="#2e2e2e" x="0" y="562.7" width="732" height="24.65" shape-rendering="crispEdges"/><rect fill="#2e2e2e" x="0" y="587.1" width="732" height="24.65" shape-rendering="crispEdges"/><rect fill="#2e2e2e" x="0" y="611.5" width="732" height="24.65" shape-rendering="crispEdges"/><rect fill="#2e2e2e" x="0" y="635.9" width="109.8" height="24.65" shape-rendering="crispEdges"/><rect fill="#2e2e2e" x="109.8" y="635.9" width="36.6" height="24.65" shape-rendering="crispEdges"/><rect fill="#2e2e2e" x="146.4" y="635.9" width="12.2" height="24.65" shape-rendering="crispEdges"/><rect fill="#2e2e2e" x="158.6" y="635.9" width="61" height="24.65" shape-rendering="crispEdges"/><rect fill="#2e2e2e" x="219.6" y="635.9" width="512.4" height="24.65" shape-rendering="crispEdges"/>
    <g class="terminal-734249508-matrix">
    <text class="terminal-734249508-r1" x="0" y="20" textLength="732" clip-path="url(#terminal-734249508-line-0)">row&#160;&#160;name&#160;&#160;&#160;&#160;&#160;&#160;&#160;&#160;&#160;&#160;&#160;&#160;&#160;&#160;&#160;&#160;&#160;&#160;&#160;&#160;&#160;&#160;&#160;&#160;&#160;&#160;&#160;&#160;next&#160;&#160;&#160;&#160;&#160;&#160;avg&#160;&#160;&#160;&#160;&#160;+/-&#160;&#160;</text><text class="terminal-734249508-r2" x="732" y="20" textLength="12.2" clip-path="url(#terminal-734249508-line-0)">
</text><text class="terminal-734249508-r3" x="0" y="44.4" textLength="732" clip-path="url(#terminal-734249508-line-1)">────────────────────────────────────────────────────────────</text><text class="terminal-734249508-r2" x="732" y="44.4" textLength="12.2" clip-path="url(#terminal-734249508-line-1)">
</text><text class="terminal-734249508-r4" x="0" y="68.8" textLength="36.6" clip-path="url(#terminal-734249508-line-2)">&#160;a&#160;</text><text class="terminal-734249508-r5" x="61" y="68.8" textLength="329.4" clip-path="url(#terminal-734249508-line-2)">Aliquam&#160;quaerat&#160;sed&#160;&#160;&#160;&#160;&#160;&#160;&#160;&#160;</text><text class="terminal-734249508-r2" x="732" y="68.8" textLength="12.2" clip-path="url(#terminal-734249508-line-2)">
</text><text class="terminal-734249508-r4" x="0" y="93.2" textLength="36.6" clip-path="url(#terminal-734249508-line-3)">&#160;b&#160;</text><text class="terminal-734249508-r5" x="61" y="93.2" textLength="329.4" clip-path="url(#terminal-734249508-line-3)">Labore&#160;ut&#160;&#160;&#160;&#160;&#160;&#160;&#160;&#160;&#160;&#160;&#160;&#160;&#160;&#160;&#160;&#160;&#160;&#160;</text><text class="terminal-734249508-r2" x="732" y="93.2" textLength="12.2" clip-path="url(#terminal-734249508-line-3)">
</text><text class="terminal-734249508-r4" x="0" y="117.6" textLength="36.6" clip-path="url(#terminal-734249508-line-4)">&#160;c&#160;</text><text class="terminal-734249508-r6" x="61" y="117.6" textLength="329.4" clip-path="url(#terminal-734249508-line-4)">Quiquia&#160;velit&#160;voluptatem&#160;&#160;&#160;</text><text class="terminal-734249508-r6" x="414.8" y="117.6" textLength="109.8" clip-path="url(#terminal-734249508-line-4)">&#160;-18h11m&#160;</text><text class="terminal-734249508-r6" x="549" y="117.6" textLength="73.2" clip-path="url(#terminal-734249508-line-4)">6d54m&#160;</text><text class="terminal-734249508-r2" x="732" y="117.6" textLength="12.2" clip-path="url(#terminal-734249508-line-4)">
</text><text class="terminal-734249508-r4" x="0" y="142" textLength="36.6" clip-path="url(#terminal-734249508-line-5)">&#160;d&#160;</text><text class="terminal-734249508-r7" x="61" y="142" textLength="329.4" clip-path="url(#terminal-734249508-line-5)">Dolorem&#160;labore&#160;&#160;&#160;&#160;&#160;&#160;&#160;&#160;&#160;&#160;&#160;&#160;&#160;</text><text class="terminal-734249508-r7" x="414.8" y="142" textLength="109.8" clip-path="url(#terminal-734249508-line-5)">&#160;-12h46m&#160;</text><text class="terminal-734249508-r7" x="549" y="142" textLength="73.2" clip-path="url(#terminal-734249508-line-5)">&#160;6d8h&#160;</text><text class="terminal-734249508-r7" x="646.6" y="142" textLength="73.2" clip-path="url(#terminal-734249508-line-5)">10h30m</text><text class="terminal-734249508-r2" x="732" y="142" textLength="12.2" clip-path="url(#terminal-734249508-line-5)">
</text><text class="terminal-734249508-r4" x="0" y="166.4" textLength="36.6" clip-path="url(#terminal-734249508-line-6)">&#160;e&#160;</text><text class="terminal-734249508-r7" x="61" y="166.4" textLength="329.4" clip-path="url(#terminal-734249508-line-6)">Consectetur&#160;porro&#160;&#160;&#160;&#160;&#160;&#160;&#160;&#160;&#160;&#160;</text><text class="terminal-734249508-r7" x="414.8" y="166.4" textLength="109.8" clip-path="url(#terminal-734249508-line-6)">&#160;-9h29m&#160;&#160;</text><text class="terminal-734249508-r7" x="549" y="166.4" textLength="73.2" clip-path="url(#terminal-734249508-line-6)">&#160;7d4h&#160;</text><text class="terminal-734249508-r7" x="646.6" y="166.4" textLength="73.2" clip-path="url(#terminal-734249508-line-6)">&#160;9h38m</text><text class="terminal-734249508-r2" x="732" y="166.4" textLength="12.2" clip-path="url(#terminal-734249508-line-6)">
</text><text class="terminal-734249508-r4" x="0" y="190.8" textLength="36.6" clip-path="url(#terminal-734249508-line-7)">&#160;f&#160;</text><text class="terminal-734249508-r7" x="61" y="190.8" textLength="329.4" clip-path="url(#terminal-734249508-line-7)">Porro&#160;velit&#160;magnam&#160;&#160;&#160;&#160;&#160;&#160;&#160;&#160;&#160;</text><text class="terminal-734249508-r7" x="414.8" y="190.8" textLength="109.8" clip-path="url(#terminal-734249508-line-7)">&#160;-7h22m&#160;&#160;</text><text class="terminal-734249508-r7" x="549" y="190.8" textLength="73.2" clip-path="url(#terminal-734249508-line-7)">14d12h</text><text class="terminal-734249508-r7" x="646.6" y="190.8" textLength="73.2" clip-path="url(#terminal-734249508-line-7)">&#160;&#160;1d4h</text><text class="terminal-734249508-r2" x="732" y="190.8" textLength="12.2" clip-path="url(#terminal-734249508-line-7)">
</text><text class="terminal-734249508-r4" x="0" y="215.2" textLength="36.6" clip-path="url(#terminal-734249508-line-8)">&#160;g&#160;</text><text class="terminal-734249508-r7" x="61" y="215.2" textLength="329.4" clip-path="url(#terminal-734249508-line-8)">Magnam&#160;adipisci&#160;dolore&#160;&#160;&#160;&#160;&#160;</text><text class="terminal-734249508-r7" x="414.8" y="215.2" textLength="109.8" clip-path="url(#terminal-734249508-line-8)">&#160;&#160;&#160;19m&#160;&#160;&#160;</text><text class="terminal-734249508-r7" x="549" y="215.2" textLength="73.2" clip-path="url(#terminal-734249508-line-8)">8d10h&#160;</text><text class="terminal-734249508-r7" x="646.6" y="215.2" textLength="73.2" clip-path="url(#terminal-734249508-line-8)">13h31m</text><text class="terminal-734249508-r2" x="732" y="215.2" textLength="12.2" clip-path="url(#terminal-734249508-line-8)">
</text><text class="terminal-734249508-r4" x="0" y="239.6" textLength="36.6" clip-path="url(#terminal-734249508-line-9)">&#160;h&#160;</text><text class="terminal-734249508-r7" x="61" y="239.6" textLength="329.4" clip-path="url(#terminal-734249508-line-9)">Etincidunt&#160;amet&#160;&#160;&#160;&#160;&#160;&#160;&#160;&#160;&#160;&#160;&#160;&#160;</text><text class="terminal-734249508-r7" x="414.8" y="239.6" textLength="109.8" clip-path="url(#terminal-734249508-line-9)">&#160;&#160;1h31m&#160;&#160;</text><text class="terminal-734249508-r7" x="549" y="239.6" textLength="73.2" clip-path="url(#terminal-734249508-line-9)">11d18h</text><text class="terminal-734249508-r7" x="646.6" y="239.6" textLength="73.2" clip-path="url(#terminal-734249508-line-9)">&#160;12h2m</text><text class="terminal-734249508-r2" x="732" y="239.6" textLength="12.2" clip-path="url(#terminal-734249508-line-9)">
</text><text class="terminal-734249508-r4" x="0" y="264" textLength="36.6" clip-path="url(#terminal-734249508-line-10)">&#160;i&#160;</text><text class="terminal-734249508-r7" x="61" y="264" textLength="329.4" clip-path="url(#terminal-734249508-line-10)">Est&#160;eius&#160;modi&#160;&#160;&#160;&#160;&#160;&#160;&#160;&#160;&#160;&#160;&#160;&#160;&#160;&#160;</text><text class="terminal-734249508-r7" x="414.8" y="264" textLength="109.8" clip-path="url(#terminal-734249508-line-10)">&#160;&#160;4h33m&#160;&#160;</text><text class="terminal-734249508-r7" x="549" y="264" textLength="73.2" clip-path="url(#terminal-734249508-line-10)">&#160;3d7h&#160;</text><text class="terminal-734249508-r7" x="646.6" y="264" textLength="73.2" clip-path="url(#terminal-734249508-line-10)">&#160;7h37m</text><text class="terminal-734249508-r2" x="732" y="264" textLength="12.2" clip-path="url(#terminal-734249508-line-10)">
</text><text class="terminal-734249508-r4" x="0" y="288.4" textLength="36.6" clip-path="url(#terminal-734249508-line-11)">&#160;j&#160;</text><text class="terminal-734249508-r8" x="61" y="288.4" textLength="329.4" clip-path="url(#terminal-734249508-line-11)">Dolore&#160;dolorem&#160;aliquam&#160;&#160;&#160;&#160;&#160;</text><text class="terminal-734249508-r8" x="414.8" y="288.4" textLength="109.8" clip-path="url(#terminal-734249508-line-11)">&#160;12h41m&#160;&#160;</text><text class="terminal-734249508-r8" x="549" y="288.4" textLength="73.2" clip-path="url(#terminal-734249508-line-11)">&#160;3d5h&#160;</text><text class="terminal-734249508-r8" x="646.6" y="288.4" textLength="73.2" clip-path="url(#terminal-734249508-line-11)">&#160;4h48m</text><text class="terminal-734249508-r2" x="732" y="288.4" textLength="12.2" clip-path="url(#terminal-734249508-line-11)">
</text><text class="terminal-734249508-r4" x="0" y="312.8" textLength="36.6" clip-path="url(#terminal-734249508-line-12)">&#160;k&#160;</text><text class="terminal-734249508-r9" x="61" y="312.8" textLength="329.4" clip-path="url(#terminal-734249508-line-12)">Dolor&#160;porro&#160;&#160;&#160;&#160;&#160;&#160;&#160;&#160;&#160;&#160;&#160;&#160;&#160;&#160;&#160;&#160;</text><text class="terminal-734249508-r9" x="414.8" y="312.8" textLength="109.8" clip-path="url(#terminal-734249508-line-12)">&#160;&#160;11h3m&#160;&#160;</text><text class="terminal-734249508-r9" x="549" y="312.8" textLength="73.2" clip-path="url(#terminal-734249508-line-12)">5d10h&#160;</text><text class="terminal-734249508-r2" x="732" y="312.8" textLength="12.2" clip-path="url(#terminal-734249508-line-12)">
</text><text class="terminal-734249508-r4" x="0" y="337.2" textLength="36.6" clip-path="url(#terminal-734249508-line-13)">&#160;l&#160;</text><text class="terminal-734249508-r9" x="61" y="337.2" textLength="329.4" clip-path="url(#terminal-734249508-line-13)">Magnam&#160;non&#160;&#160;&#160;&#160;&#160;&#160;&#160;&#160;&#160;&#160;&#160;&#160;&#160;&#160;&#160;&#160;&#160;</text><text class="terminal-734249508-r9" x="414.8" y="337.2" textLength="109.8" clip-path="url(#terminal-734249508-line-13)">&#160;&#160;1d3h&#160;&#160;&#160;</text><text class="terminal-734249508-r9" x="549" y="337.2" textLength="73.2" clip-path="url(#terminal-734249508-line-13)">&#160;3d8h&#160;</text><text class="terminal-734249508-r2" x="732" y="337.2" textLength="12.2" clip-path="url(#terminal-734249508-line-13)">
</text><text class="terminal-734249508-r2" x="732" y="361.6" textLength="12.2" clip-path="url(#terminal-734249508-line-14)">
</text><text class="terminal-734249508-r2" x="732" y="386" textLength="12.2" clip-path="url(#terminal-734249508-line-15)">
</text><text class="terminal-734249508-r2" x="732" y="410.4" textLength="12.2" clip-path="url(#terminal-734249508-line-16)">
</text><text class="terminal-734249508-r2" x="732" y="434.8" textLength="12.2" clip-path="url(#terminal-734249508-line-17)">
</text><text class="terminal-734249508-r2" x="732" y="459.2" textLength="12.2" clip-path="url(#terminal-734249508-line-18)">
</text><text class="terminal-734249508-r2" x="732" y="483.6" textLength="12.2" clip-path="url(#terminal-734249508-line-19)">
</text><text class="terminal-734249508-r2" x="732" y="508" textLength="12.2" clip-path="url(#terminal-734249508-line-20)">
</text><text class="terminal-734249508-r2" x="732" y="532.4" textLength="12.2" clip-path="url(#terminal-734249508-line-21)">
</text><text class="terminal-734249508-r2" x="732" y="556.8" textLength="12.2" clip-path="url(#terminal-734249508-line-22)">
</text><text class="terminal-734249508-r2" x="732" y="581.2" textLength="12.2" clip-path="url(#terminal-734249508-line-23)">
</text><text class="terminal-734249508-r2" x="732" y="605.6" textLength="12.2" clip-path="url(#terminal-734249508-line-24)">
</text><text class="terminal-734249508-r2" x="732" y="630" textLength="12.2" clip-path="url(#terminal-734249508-line-25)">
</text><text class="terminal-734249508-r10" x="0" y="654.4" textLength="109.8" clip-path="url(#terminal-734249508-line-26)">Fri&#160;13:52</text><text class="terminal-734249508-r10" x="109.8" y="654.4" textLength="36.6" clip-path="url(#terminal-734249508-line-26)">&#160;|&#160;</text><text class="terminal-734249508-r11" x="146.4" y="654.4" textLength="12.2" clip-path="url(#terminal-734249508-line-26)">?</text><text class="terminal-734249508-r10" x="158.6" y="654.4" textLength="61" clip-path="url(#terminal-734249508-line-26)">&#160;Help</text>
    </g>
    </g>
</svg>
