<svg class="rich-terminal" viewBox="0 0 836 684.4" xmlns="http://www.w3.org/2000/svg">
    <!-- Generated with Rich https://www.textualize.io -->
    <style>

    @font-face {
        font-family: "Fira Code";
        src: local("FiraCode-Regular"),
                url("https://cdnjs.cloudflare.com/ajax/libs/firacode/6.2.0/woff2/FiraCode-Regular.woff2") format("woff2"),
                url("https://cdnjs.cloudflare.com/ajax/libs/firacode/6.2.0/woff/FiraCode-Regular.woff") format("woff");
        font-style: normal;
        font-weight: 400;
    }
    @font-face {
        font-family: "Fira Code";
        src: local("FiraCode-Bold"),
                url("https://cdnjs.cloudflare.com/ajax/libs/firacode/6.2.0/woff2/FiraCode-Bold.woff2") format("woff2"),
                url("https://cdnjs.cloudflare.com/ajax/libs/firacode/6.2.0/woff/FiraCode-Bold.woff") format("woff");
        font-style: bold;
        font-weight: 700;
    }

    .terminal-489419623-matrix {
        font-family: Fira Code, monospace;
        font-size: 20px;
        line-height: 24.4px;
        font-variant-east-asian: full-width;
    }

    .terminal-489419623-title {
        font-size: 18px;
        font-weight: bold;
        font-family: arial;
    }

    .terminal-489419623-r1 { fill: #fff8dc;font-weight: bold }
.terminal-489419623-r2 { fill: #c5c8c6 }
.terminal-489419623-r3 { fill: #888a89 }
.terminal-489419623-r4 { fill: #ffb920 }
.terminal-489419623-r5 { fill: #ffff00 }
.terminal-489419623-r6 { fill: #ff8438 }
.terminal-489419623-r7 { fill: #ff5050 }
.terminal-489419623-r8 { fill: #8cba5c }
.terminal-489419623-r9 { fill: #fd971f;font-weight: bold }
.terminal-489419623-r10 { fill: #e0e0e0 }
    </style>

    <defs>
    <clipPath id="terminal-489419623-clip-terminal">
      <rect x="0" y="0" width="816.4" height="633.4" />
    </clipPath>
    <clipPath id="terminal-489419623-line-0">
    <rect x="0" y="1.5" width="817.4" height="24.65"/>
            </clipPath>
<clipPath id="terminal-489419623-line-1">
    <rect x="0" y="25.9" width="817.4" height="24.65"/>
            </clipPath>
<clipPath id="terminal-489419623-line-2">
    <rect x="0" y="50.3" width="817.4" height="24.65"/>
            </clipPath>
<clipPath id="terminal-489419623-line-3">
    <rect x="0" y="74.7" width="817.4" height="24.65"/>
            </clipPath>
<clipPath id="terminal-489419623-line-4">
    <rect x="0" y="99.1" width="817.4" height="24.65"/>
            </clipPath>
<clipPath id="terminal-489419623-line-5">
    <rect x="0" y="123.5" width="817.4" height="24.65"/>
            </clipPath>
<clipPath id="terminal-489419623-line-6">
    <rect x="0" y="147.9" width="817.4" height="24.65"/>
            </clipPath>
<clipPath id="terminal-489419623-line-7">
    <rect x="0" y="172.3" width="817.4" height="24.65"/>
            </clipPath>
<clipPath id="terminal-489419623-line-8">
    <rect x="0" y="196.7" width="817.4" height="24.65"/>
            </clipPath>
<clipPath id="terminal-489419623-line-9">
    <rect x="0" y="221.1" width="817.4" height="24.65"/>
            </clipPath>
<clipPath id="terminal-489419623-line-10">
    <rect x="0" y="245.5" width="817.4" height="24.65"/>
            </clipPath>
<clipPath id="terminal-489419623-line-11">
    <rect x="0" y="269.9" width="817.4" height="24.65"/>
            </clipPath>
<clipPath id="terminal-489419623-line-12">
    <rect x="0" y="294.3" width="817.4" height="24.65"/>
            </clipPath>
<clipPath id="terminal-489419623-line-13">
    <rect x="0" y="318.7" width="817.4" height="24.65"/>
            </clipPath>
<clipPath id="terminal-489419623-line-14">
    <rect x="0" y="343.1" width="817.4" height="24.65"/>
            </clipPath>
<clipPath id="terminal-489419623-line-15">
    <rect x="0" y="367.5" width="817.4" height="24.65"/>
            </clipPath>
<clipPath id="terminal-489419623-line-16">
    <rect x="0" y="391.9" width="817.4" height="24.65"/>
            </clipPath>
<clipPath id="terminal-489419623-line-17">
    <rect x="0" y="416.3" width="817.4" height="24.65"/>
            </clipPath>
<clipPath id="terminal-489419623-line-18">
    <rect x="0" y="440.7" width="817.4" height="24.65"/>
            </clipPath>
<clipPath id="terminal-489419623-line-19">
    <rect x="0" y="465.1" width="817.4" height="24.65"/>
            </clipPath>
<clipPath id="terminal-489419623-line-20">
    <rect x="0" y="489.5" width="817.4" height="24.65"/>
            </clipPath>
<clipPath id="terminal-489419623-line-21">
    <rect x="0" y="513.9" width="817.4" height="24.65"/>
            </clipPath>
<clipPath id="terminal-489419623-line-22">
    <rect x="0" y="538.3" width="817.4" height="24.65"/>
            </clipPath>
<clipPath id="terminal-489419623-line-23">
    <rect x="0" y="562.7" width="817.4" height="24.65"/>
            </clipPath>
<clipPath id="terminal-489419623-line-24">
    <rect x="0" y="587.1" width="817.4" height="24.65"/>
            </clipPath>
    </defs>

    <rect fill="#292929" stroke="rgba(255,255,255,0.35)" stroke-width="1" x="1" y="1" width="834" height="682.4" rx="8"/>
            <g transform="translate(26,22)">
            <circle cx="0" cy="0" r="7" fill="#ff5f57"/>
            <circle cx="22" cy="0" r="7" fill="#febc2e"/>
            <circle cx="44" cy="0" r="7" fill="#28c840"/>
            </g>
        
    <g transform="translate(9, 41)" clip-path="url(#terminal-489419623-clip-terminal)">
    <rect fill="#2e2e2e" x="0" y="1.5" width="817.4" height="24.65" shape-rendering="crispEdges"/><rect fill="#2e2e2e" x="0" y="25.9" width="36.6" height="24.65" shape-rendering="crispEdges"/><rect fill="#2e2e2e" x="36.6" y="25.9" width="24.4" height="24.65" shape-rendering="crispEdges"/><rect fill="#2e2e2e" x="61" y="25.9" width="305" height="24.65" shape-rendering="crispEdges"/><rect fill="#2e2e2e" x="366" y="25.9" width="24.4" height="24.65" shape-rendering="crispEdges"/><rect fill="#2e2e2e" x="390.4" y="25.9" width="97.6" height="24.65" shape-rendering="crispEdges"/><rect fill="#2e2e2e" x="488" y="25.9" width="24.4" height="24.65" shape-rendering="crispEdges"/><rect fill="#2e2e2e" x="512.4" y="25.9" width="97.6" height="24.65" shape-rendering="crispEdges"/><rect fill="#2e2e2e" x="610" y="25.9" width="24.4" height="24.65" shape-rendering="crispEdges"/><rect fill="#2e2e2e" x="634.4" y="25.9" width="73.2" height="24.65" shape-rendering="crispEdges"/><rect fill="#2e2e2e" x="707.6" y="25.9" width="109.8" height="24.65" shape-rendering="crispEdges"/><rect fill="#2e2e2e" x="0" y="50.3" width="36.6" height="24.65" shape-rendering="crispEdges"/><rect fill="#2e2e2e" x="36.6" y="50.3" width="24.4" height="24.65" shape-rendering="crispEdges"/><rect fill="#2e2e2e" x="61" y="50.3" width="305" height="24.65" shape-rendering="crispEdges"/><rect fill="#2e2e2e" x="366" y="50.3" width="24.4" height="24.65" shape-rendering="crispEdges"/><rect fill="#2e2e2e" x="390.4" y="50.3" width="97.6" height="24.65" shape-rendering="crispEdges"/><rect fill="#2e2e2e" x="488" y="50.3" width="24.4" height="24.65" shape-rendering="crispEdges"/><rect fill="#2e2e2e" x="512.4" y="50.3" width="97.6" height="24.65" shape-rendering="crispEdges"/><rect fill="#2e2e2e" x="610" y="50.3" width="24.4" height="24.65" shape-rendering="crispEdges"/><rect fill="#2e2e2e" x="634.4" y="50.3" width="73.2" height="24.65" shape-rendering="crispEdges"/><rect fill="#2e2e2e" x="707.6" y="50.3" width="109.8" height="24.65" shape-rendering="crispEdges"/><rect fill="#2e2e2e" x="0" y="74.7" width="36.6" height="24.65" shape-rendering="crispEdges"/><rect fill="#2e2e2e" x="36.6" y="74.7" width="24.4" height="24.65" shape-rendering="crispEdges"/><rect fill="#2e2e2e" x="61" y="74.7" width="305" height="24.65" shape-rendering="crispEdges"/><rect fill="#2e2e2e" x="366" y="74.7" width="24.4" height="24.65" shape-rendering="crispEdges"/><rect fill="#2e2e2e" x="390.4" y="74.7" width="97.6" height="24.65" shape-rendering="crispEdges"/><rect fill="#2e2e2e" x="488" y="74.7" width="24.4" height="24.65" shape-rendering="crispEdges"/><rect fill="#2e2e2e" x="512.4" y="74.7" width="97.6" height="24.65" shape-rendering="crispEdges"/><rect fill="#2e2e2e" x="610" y="74.7" width="24.4" height="24.65" shape-rendering="crispEdges"/><rect fill="#2e2e2e" x="634.4" y="74.7" width="73.2" height="24.65" shape-rendering="crispEdges"/><rect fill="#2e2e2e" x="707.6" y="74.7" width="109.8" height="24.65" shape-rendering="crispEdges"/><rect fill="#2e2e2e" x="0" y="99.1" width="36.6" height="24.65" shape-rendering="crispEdges"/><rect fill="#2e2e2e" x="36.6" y="99.1" width="24.4" height="24.65" shape-rendering="crispEdges"/><rect fill="#2e2e2e" x="61" y="99.1" width="305" height="24.65" shape-rendering="crispEdges"/><rect fill="#2e2e2e" x="366" y="99.1" width="24.4" height="24.65" shape-rendering="crispEdges"/><rect fill="#2e2e2e" x="390.4" y="99.1" width="97.6" height="24.65" shape-rendering="crispEdges"/><rect fill="#2e2e2e" x="488" y="99.1" width="24.4" height="24.65" shape-rendering="crispEdges"/><rect fill="#2e2e2e" x="512.4" y="99.1" width="97.6" height="24.65" shape-rendering="crispEdges"/><rect fill="#2e2e2e" x="610" y="99.1" width="24.4" height="24.65" shape-rendering="crispEdges"/><rect fill="#2e2e2e" x="634.4" y="99.1" width="73.2" height="24.65" shape-rendering="crispEdges"/><rect fill="#2e2e2e" x="707.6" y="99.1" width="109.8" height="24.65" shape-rendering="crispEdges"/><rect fill="#2e2e2e" x="0" y="123.5" width="36.6" height="24.65" shape-rendering="crispEdges"/><rect fill="#2e2e2e" x="36.6" y="123.5" width="24.4" height="24.65" shape-rendering="crispEdges"/><rect fill="#2e2e2e" x="61" y="123.5" width="305" height="24.65" shape-rendering="crispEdges"/><rect fill="#2e2e2e" x="366" y="123.5" width="24.4" height="24.65" shape-rendering="crispEdges"/><rect fill="#2e2e2e" x="390.4" y="123.5" width="97.6" height="24.65" shape-rendering="crispEdges"/><rect fill="#2e2e2e" x="488" y="123.5" width="24.4" height="24.65" shape-rendering="crispEdges"/><rect fill="#2e2e2e" x="512.4" y="123.5" width="97.6" height="24.65" shape-rendering="crispEdges"/><rect fill="#2e2e2e" x="610" y="123.5" width="24.4" height="24.65" shape-rendering="crispEdges"/><rect fill="#2e2e2e" x="634.4" y="123.5" width="73.2" height="24.65" shape-rendering="crispEdges"/><rect fill="#2e2e2e" x="707.6" y="123.5" width="109.8" height="24.65" shape-rendering="crispEdges"/><rect fill="#2e2e2e" x="0" y="147.9" width="36.6" height="24.65" shape-rendering="crispEdges"/><rect fill="#2e2e2e" x="36.6" y="147.9" width="24.4" height="24.65" shape-rendering="crispEdges"/><rect fill="#2e2e2e" x="61" y="147.9" width="305" height="24.65" shape-rendering="crispEdges"/><rect fill="#2e2e2e" x="366" y="147.9" width="24.4" height="24.65" shape-rendering="crispEdges"/><rect fill="#2e2e2e" x="390.4" y="147.9" width="97.6" height="24.65" shape-rendering="crispEdges"/><rect fill="#2e2e2e" x="488" y="147.9" width="24.4" height="24.65" shape-rendering="crispEdges"/><rect fill="#2e2e2e" x="512.4" y="147.9" width="97.6" height="24.65" shape-rendering="crispEdges"/><rect fill="#2e2e2e" x="610" y="147.9" width="24.4" height="24.65" shape-rendering="crispEdges"/><rect fill="#2e2e2e" x="634.4" y="147.9" width="73.2" height="24.65" shape-rendering="crispEdges"/><rect fill="#2e2e2e" x="707.6" y="147.9" width="109.8" height="24.65" shape-rendering="crispEdges"/><rect fill="#2e2e2e" x="0" y="172.3" width="36.6" height="24.65" shape-rendering="crispEdges"/><rect fill="#2e2e2e" x="36.6" y="172.3" width="24.4" height="24.65" shape-rendering="crispEdges"/><rect fill="#2e2e2e" x="61" y="172.3" width="305" height="24.65" shape-rendering="crispEdges"/><rect fill="#2e2e2e" x="366" y="172.3" width="24.4" height="24.65" shape-rendering="crispEdges"/><rect fill="#2e2e2e" x="390.4" y="172.3" width="97.6" height="24.65" shape-rendering="crispEdges"/><rect fill="#2e2e2e" x="488" y="172.3" width="24.4" height="24.65" shape-rendering="crispEdges"/><rect fill="#2e2e2e" x="512.4" y="172.3" width="97.6" height="24.65" shape-rendering="crispEdges"/><rect fill="#2e2e2e" x="610" y="172.3" width="24.4" height="24.65" shape-rendering="crispEdges"/><rect fill="#2e2e2e" x="634.4" y="172.3" width="73.2" height="24.65" shape-rendering="crispEdges"/><rect fill="#2e2e2e" x="707.6" y="172.3" width="109.8" height="24.65" shape-rendering="crispEdges"/><rect fill="#2e2e2e" x="0" y="196.7" width="36.6" height="24.65" shape-rendering="crispEdges"/><rect fill="#2e2e2e" x="36.6" y="196.7" width="24.4" height="24.65" shape-rendering="crispEdges"/><rect fill="#2e2e2e" x="61" y="196.7" width="305" height="24.65" shape-rendering="crispEdges"/><rect fill="#2e2e2e" x="366" y="196.7" width="24.4" height="24.65" shape-rendering="crispEdges"/><rect fill="#2e2e2e" x="390.4" y="196.7" width="97.6" height="24.65" shape-rendering="crispEdges"/><rect fill="#2e2e2e" x="488" y="196.7" width="24.4" height="24.65" shape-rendering="crispEdges"/><rect fill="#2e2e2e" x="512.4" y="196.7" width="97.6" height="24.65" shape-rendering="crispEdges"/><rect fill="#2e2e2e" x="610" y="196.7" width="24.4" height="24.65" shape-rendering="crispEdges"/><rect fill="#2e2e2e" x="634.4" y="196.7" width="73.2" height="24.65" shape-rendering="crispEdges"/><rect fill="#2e2e2e" x="707.6" y="196.7" width="109.8" height="24.65" shape-rendering="crispEdges"/><rect fill="#2e2e2e" x="0" y="221.1" width="36.6" height="24.65" shape-rendering="crispEdges"/><rect fill="#2e2e2e" x="36.6" y="221.1" width="24.4" height="24.65" shape-rendering="crispEdges"/><rect fill="#2e2e2e" x="61" y="221.1" width="305" height="24.65" shape-rendering="crispEdges"/><rect fill="#2e2e2e" x="366" y="221.1" width="24.4" height="24.65" shape-rendering="crispEdges"/><rect fill="#2e2e2e" x="390.4" y="221.1" width="97.6" height="24.65" shape-rendering="crispEdges"/><rect fill="#2e2e2e" x="488" y="221.1" width="24.4" height="24.65" shape-rendering="crispEdges"/><rect fill="#2e2e2e" x="512.4" y="221.1" width="97.6" height="24.65" shape-rendering="crispEdges"/><rect fill="#2e2e2e" x="610" y="221.1" width="24.4" height="24.65" shape-rendering="crispEdges"/><rect fill="#2e2e2e" x="634.4" y="221.1" width="73.2" height="24.65" shape-rendering="crispEdges"/><rect fill="#2e2e2e" x="707.6" y="221.1" width="109.8" height="24.65" shape-rendering="crispEdges"/><rect fill="#2e2e2e" x="0" y="245.5" width="36.6" height="24.65" shape-rendering="crispEdges"/><rect fill="#2e2e2e" x="36.6" y="245.5" width="24.4" height="24.65" shape-rendering="crispEdges"/><rect fill="#2e2e2e" x="61" y="245.5" width="305" height="24.65" shape-rendering="crispEdges"/><rect fill="#2e2e2e" x="366" y="245.5" width="24.4" height="24.65" shape-rendering="crispEdges"/><rect fill="#2e2e2e" x="390.4" y="245.5" width="97.6" height="24.65" shape-rendering="crispEdges"/><rect fill="#2e2e2e" x="488" y="245.5" width="24.4" height="24.65" shape-rendering="crispEdges"/><rect fill="#2e2e2e" x="512.4" y="245.5" width="97.6" height="24.65" shape-rendering="crispEdges"/><rect fill="#2e2e2e" x="610" y="245.5" width="24.4" height="24.65" shape-rendering="crispEdges"/><rect fill="#2e2e2e" x="634.4" y="245.5" width="73.2" height="24.65" shape-rendering="crispEdges"/><rect fill="#2e2e2e" x="707.6" y="245.5" width="109.8" height="24.65" shape-rendering="crispEdges"/><rect fill="#2e2e2e" x="0" y="269.9" width="36.6" height="24.65" shape-rendering="crispEdges"/><rect fill="#2e2e2e" x="36.6" y="269.9" width="24.4" height="24.65" shape-rendering="crispEdges"/><rect fill="#2e2e2e" x="61" y="269.9" width="305" height="24.65" shape-rendering="crispEdges"/><rect fill="#2e2e2e" x="366" y="269.9" width="24.4" height="24.65" shape-rendering="crispEdges"/><rect fill="#2e2e2e" x="390.4" y="269.9" width="97.6" height="24.65" shape-rendering="crispEdges"/><rect fill="#2e2e2e" x="488" y="269.9" width="24.4" height="24.65" shape-rendering="crispEdges"/><rect fill="#2e2e2e" x="512.4" y="269.9" width="97.6" height="24.65" shape-rendering="crispEdges"/><rect fill="#2e2e2e" x="610" y="269.9" width="24.4" height="24.65" shape-rendering="crispEdges"/><rect fill="#2e2e2e" x="634.4" y="269.9" width="73.2" height="24.65" shape-rendering="crispEdges"/><rect fill="#2e2e2e" x="707.6" y="269.9" width="109.8" height="24.65" shape-rendering="crispEdges"/><rect fill="#2e2e2e" x="0" y="294.3" width="36.6" height="24.65" shape-rendering="crispEdges"/><rect fill="#2e2e2e" x="36.6" y="294.3" width="24.4" height="24.65" shape-rendering="crispEdges"/><rect fill="#2e2e2e" x="61" y="294.3" width="305" height="24.65" shape-rendering="crispEdges"/><rect fill="#2e2e2e" x="366" y="294.3" width="24.4" height="24.65" shape-rendering="crispEdges"/><rect fill="#2e2e2e" x="390.4" y="294.3" width="97.6" height="24.65" shape-rendering="crispEdges"/><rect fill="#2e2e2e" x="488" y="294.3" width="24.4" height="24.65" shape-rendering="crispEdges"/><rect fill="#2e2e2e" x="512.4" y="294.3" width="97.6" height="24.65" shape-rendering="crispEdges"/><rect fill="#2e2e2e" x="610" y="294.3" width="24.4" height="24.65" shape-rendering="crispEdges"/><rect fill="#2e2e2e" x="634.4" y="294.3" width="73.2" height="24.65" shape-rendering="crispEdges"/><rect fill="#2e2e2e" x="707.6" y="294.3" width="109.8" height="24.65" shape-rendering="crispEdges"/><rect fill="#2e2e2e" x="0" y="318.7" width="817.4" height="24.65" shape-rendering="crispEdges"/><rect fill="#2e2e2e" x="0" y="343.1" width="817.4" height="24.65" shape-rendering="crispEdges"/><rect fill="#2e2e2e" x="0" y="367.5" width="817.4" height="24.65" shape-rendering="crispEdges"/><rect fill="#2e2e2e" x="0" y="391.9" width="817.4" height="24.65" shape-rendering="crispEdges"/><rect fill="#2e2e2e" x="0" y="416.3" width="817.4" height="24.65" shape-rendering="crispEdges"/><rect fill="#2e2e2e" x="0" y="440.7" width="817.4" height="24.65" shape-rendering="crispEdges"/><rect fill="#2e2e2e" x="0" y="465.1" width="817.4" height="24.65" shape-rendering="crispEdges"/><rect fill="#2e2e2e" x="0" y="489.5" width="817.4" height="24.65" shape-rendering="crispEdges"/><rect fill="#2e2e2e" x="0" y="513.9" width="817.4" height="24.65" shape-rendering="crispEdges"/><rect fill="#2e2e2e" x="0" y="538.3" width="817.4" height="24.65" shape-rendering="crispEdges"/><rect fill="#2e2e2e" x="0" y="562.7" width="817.4" height="24.65" shape-rendering="crispEdges"/><rect fill="#2e2e2e" x="0" y="587.1" width="817.4" height="24.65" shape-rendering="crispEdges"/><rect fill="#2e2e2e" x="0" y="611.5" width="12.2" height="24.65" shape-rendering="crispEdges"/><rect fill="#2e2e2e" x="12.2" y="611.5" width="73.2" height="24.65" shape-rendering="crispEdges"/><rect fill="#2e2e2e" x="85.4" y="611.5" width="12.2" height="24.65" shape-rendering="crispEdges"/><rect fill="#2e2e2e" x="97.6" y="611.5" width="85.4" height="24.65" shape-rendering="crispEdges"/><rect fill="#2e2e2e" x="183" y="611.5" width="634.4" height="24.65" shape-rendering="crispEdges"/>
    <g class="terminal-489419623-matrix">
    <text class="terminal-489419623-r1" x="0" y="20" textLength="817.4" clip-path="url(#terminal-489419623-line-0)">row&#160;&#160;name&#160;&#160;&#160;&#160;&#160;&#160;&#160;&#160;&#160;&#160;&#160;&#160;&#160;&#160;&#160;&#160;&#160;&#160;&#160;&#160;&#160;&#160;&#160;&#160;&#160;last&#160;&#160;&#160;&#160;&#160;&#160;next&#160;&#160;&#160;&#160;&#160;+/-&#160;&#160;&#160;&#160;&#160;&#160;&#160;&#160;&#160;&#160;&#160;</text><text class="terminal-489419623-r2" x="817.4" y="20" textLength="12.2" clip-path="url(#terminal-489419623-line-0)">
</text><text class="terminal-489419623-r3" x="0" y="44.4" textLength="36.6" clip-path="url(#terminal-489419623-line-1)">&#160;a&#160;</text><text class="terminal-489419623-r4" x="61" y="44.4" textLength="305" clip-path="url(#terminal-489419623-line-1)">Task&#160;L&#160;&#160;&#160;&#160;&#160;&#160;&#160;&#160;&#160;&#160;&#160;&#160;&#160;&#160;&#160;&#160;&#160;&#160;&#160;</text><text class="terminal-489419623-r4" x="390.4" y="44.4" textLength="97.6" clip-path="url(#terminal-489419623-line-1)">25-01-17</text><text class="terminal-489419623-r4" x="512.4" y="44.4" textLength="97.6" clip-path="url(#terminal-489419623-line-1)">25-01-31</text><text class="terminal-489419623-r4" x="634.4" y="44.4" textLength="73.2" clip-path="url(#terminal-489419623-line-1)">2d21h&#160;</text><text class="terminal-489419623-r2" x="817.4" y="44.4" textLength="12.2" clip-path="url(#terminal-489419623-line-1)">
</text><text class="terminal-489419623-r3" x="0" y="68.8" textLength="36.6" clip-path="url(#terminal-489419623-line-2)">&#160;b&#160;</text><text class="terminal-489419623-r5" x="61" y="68.8" textLength="305" clip-path="url(#terminal-489419623-line-2)">Task&#160;K&#160;&#160;&#160;&#160;&#160;&#160;&#160;&#160;&#160;&#160;&#160;&#160;&#160;&#160;&#160;&#160;&#160;&#160;&#160;</text><text class="terminal-489419623-r5" x="390.4" y="68.8" textLength="97.6" clip-path="url(#terminal-489419623-line-2)">25-01-19</text><text class="terminal-489419623-r5" x="512.4" y="68.8" textLength="97.6" clip-path="url(#terminal-489419623-line-2)">25-02-01</text><text class="terminal-489419623-r5" x="634.4" y="68.8" textLength="73.2" clip-path="url(#terminal-489419623-line-2)">2d9h&#160;&#160;</text><text class="terminal-489419623-r2" x="817.4" y="68.8" textLength="12.2" clip-path="url(#terminal-489419623-line-2)">
</text><text class="terminal-489419623-r3" x="0" y="93.2" textLength="36.6" clip-path="url(#terminal-489419623-line-3)">&#160;c&#160;</text><text class="terminal-489419623-r6" x="61" y="93.2" textLength="305" clip-path="url(#terminal-489419623-line-3)">Task&#160;H&#160;&#160;&#160;&#160;&#160;&#160;&#160;&#160;&#160;&#160;&#160;&#160;&#160;&#160;&#160;&#160;&#160;&#160;&#160;</text><text class="terminal-489419623-r6" x="390.4" y="93.2" textLength="97.6" clip-path="url(#terminal-489419623-line-3)">25-01-21</text><text class="terminal-489419623-r6" x="512.4" y="93.2" textLength="97.6" clip-path="url(#terminal-489419623-line-3)">25-02-01</text><text class="terminal-489419623-r6" x="634.4" y="93.2" textLength="73.2" clip-path="url(#terminal-489419623-line-3)">1d3h&#160;&#160;</text><text class="terminal-489419623-r2" x="817.4" y="93.2" textLength="12.2" clip-path="url(#terminal-489419623-line-3)">
</text><text class="terminal-489419623-r3" x="0" y="117.6" textLength="36.6" clip-path="url(#terminal-489419623-line-4)">&#160;d&#160;</text><text class="terminal-489419623-r5" x="61" y="117.6" textLength="305" clip-path="url(#terminal-489419623-line-4)">Task&#160;J&#160;&#160;&#160;&#160;&#160;&#160;&#160;&#160;&#160;&#160;&#160;&#160;&#160;&#160;&#160;&#160;&#160;&#160;&#160;</text><text class="terminal-489419623-r5" x="390.4" y="117.6" textLength="97.6" clip-path="url(#terminal-489419623-line-4)">25-01-21</text><text class="terminal-489419623-r5" x="512.4" y="117.6" textLength="97.6" clip-path="url(#terminal-489419623-line-4)">25-02-01</text><text class="terminal-489419623-r5" x="634.4" y="117.6" textLength="73.2" clip-path="url(#terminal-489419623-line-4)">1d14h&#160;</text><text class="terminal-489419623-r2" x="817.4" y="117.6" textLength="12.2" clip-path="url(#terminal-489419623-line-4)">
</text><text class="terminal-489419623-r3" x="0" y="142" textLength="36.6" clip-path="url(#terminal-489419623-line-5)">&#160;e&#160;</text><text class="terminal-489419623-r5" x="61" y="142" textLength="305" clip-path="url(#terminal-489419623-line-5)">Task&#160;D&#160;&#160;&#160;&#160;&#160;&#160;&#160;&#160;&#160;&#160;&#160;&#160;&#160;&#160;&#160;&#160;&#160;&#160;&#160;</text><text class="terminal-489419623-r5" x="390.4" y="142" textLength="97.6" clip-path="url(#terminal-489419623-line-5)">25-01-27</text><text class="terminal-489419623-r5" x="512.4" y="142" textLength="97.6" clip-path="url(#terminal-489419623-line-5)">25-02-01</text><text class="terminal-489419623-r5" x="634.4" y="142" textLength="73.2" clip-path="url(#terminal-489419623-line-5)">1d6h&#160;&#160;</text><text class="terminal-489419623-r2" x="817.4" y="142" textLength="12.2" clip-path="url(#terminal-489419623-line-5)">
</text><text class="terminal-489419623-r3" x="0" y="166.4" textLength="36.6" clip-path="url(#terminal-489419623-line-6)">&#160;f&#160;</text><text class="terminal-489419623-r5" x="61" y="166.4" textLength="305" clip-path="url(#terminal-489419623-line-6)">Task&#160;G&#160;&#160;&#160;&#160;&#160;&#160;&#160;&#160;&#160;&#160;&#160;&#160;&#160;&#160;&#160;&#160;&#160;&#160;&#160;</text><text class="terminal-489419623-r5" x="390.4" y="166.4" textLength="97.6" clip-path="url(#terminal-489419623-line-6)">25-01-23</text><text class="terminal-489419623-r5" x="512.4" y="166.4" textLength="97.6" clip-path="url(#terminal-489419623-line-6)">25-02-01</text><text class="terminal-489419623-r5" x="634.4" y="166.4" textLength="73.2" clip-path="url(#terminal-489419623-line-6)">1d5h&#160;&#160;</text><text class="terminal-489419623-r2" x="817.4" y="166.4" textLength="12.2" clip-path="url(#terminal-489419623-line-6)">
</text><text class="terminal-489419623-r3" x="0" y="190.8" textLength="36.6" clip-path="url(#terminal-489419623-line-7)">&#160;g&#160;</text><text class="terminal-489419623-r5" x="61" y="190.8" textLength="305" clip-path="url(#terminal-489419623-line-7)">Task&#160;I&#160;&#160;&#160;&#160;&#160;&#160;&#160;&#160;&#160;&#160;&#160;&#160;&#160;&#160;&#160;&#160;&#160;&#160;&#160;</text><text class="terminal-489419623-r5" x="390.4" y="190.8" textLength="97.6" clip-path="url(#terminal-489419623-line-7)">25-01-22</text><text class="terminal-489419623-r5" x="512.4" y="190.8" textLength="97.6" clip-path="url(#terminal-489419623-line-7)">25-02-02</text><text class="terminal-489419623-r5" x="634.4" y="190.8" textLength="73.2" clip-path="url(#terminal-489419623-line-7)">1d10h&#160;</text><text class="terminal-489419623-r2" x="817.4" y="190.8" textLength="12.2" clip-path="url(#terminal-489419623-line-7)">
</text><text class="terminal-489419623-r3" x="0" y="215.2" textLength="36.6" clip-path="url(#terminal-489419623-line-8)">&#160;h&#160;</text><text class="terminal-489419623-r7" x="61" y="215.2" textLength="305" clip-path="url(#terminal-489419623-line-8)">Task&#160;E&#160;&#160;&#160;&#160;&#160;&#160;&#160;&#160;&#160;&#160;&#160;&#160;&#160;&#160;&#160;&#160;&#160;&#160;&#160;</text><text class="terminal-489419623-r7" x="390.4" y="215.2" textLength="97.6" clip-path="url(#terminal-489419623-line-8)">25-01-26</text><text class="terminal-489419623-r7" x="512.4" y="215.2" textLength="97.6" clip-path="url(#terminal-489419623-line-8)">25-02-01</text><text class="terminal-489419623-r7" x="634.4" y="215.2" textLength="73.2" clip-path="url(#terminal-489419623-line-8)">13h31m</text><text class="terminal-489419623-r2" x="817.4" y="215.2" textLength="12.2" clip-path="url(#terminal-489419623-line-8)">
</text><text class="terminal-489419623-r3" x="0" y="239.6" textLength="36.6" clip-path="url(#terminal-489419623-line-9)">&#160;i&#160;</text><text class="terminal-489419623-r6" x="61" y="239.6" textLength="305" clip-path="url(#terminal-489419623-line-9)">Task&#160;B&#160;&#160;&#160;&#160;&#160;&#160;&#160;&#160;&#160;&#160;&#160;&#160;&#160;&#160;&#160;&#160;&#160;&#160;&#160;</text><text class="terminal-489419623-r6" x="390.4" y="239.6" textLength="97.6" clip-path="url(#terminal-489419623-line-9)">25-01-29</text><text class="terminal-489419623-r6" x="512.4" y="239.6" textLength="97.6" clip-path="url(#terminal-489419623-line-9)">25-02-01</text><text class="terminal-489419623-r6" x="634.4" y="239.6" textLength="73.2" clip-path="url(#terminal-489419623-line-9)">12h35m</text><text class="terminal-489419623-r2" x="817.4" y="239.6" textLength="12.2" clip-path="url(#terminal-489419623-line-9)">
</text><text class="terminal-489419623-r3" x="0" y="264" textLength="36.6" clip-path="url(#terminal-489419623-line-10)">&#160;j&#160;</text><text class="terminal-489419623-r5" x="61" y="264" textLength="305" clip-path="url(#terminal-489419623-line-10)">Task&#160;C&#160;&#160;&#160;&#160;&#160;&#160;&#160;&#160;&#160;&#160;&#160;&#160;&#160;&#160;&#160;&#160;&#160;&#160;&#160;</text><text class="terminal-489419623-r5" x="390.4" y="264" textLength="97.6" clip-path="url(#terminal-489419623-line-10)">25-01-29</text><text class="terminal-489419623-r5" x="512.4" y="264" textLength="97.6" clip-path="url(#terminal-489419623-line-10)">25-02-01</text><text class="terminal-489419623-r5" x="634.4" y="264" textLength="73.2" clip-path="url(#terminal-489419623-line-10)">15h42m</text><text class="terminal-489419623-r2" x="817.4" y="264" textLength="12.2" clip-path="url(#terminal-489419623-line-10)">
</text><text class="terminal-489419623-r3" x="0" y="288.4" textLength="36.6" clip-path="url(#terminal-489419623-line-11)">&#160;k&#160;</text><text class="terminal-489419623-r7" x="61" y="288.4" textLength="305" clip-path="url(#terminal-489419623-line-11)">Task&#160;A&#160;&#160;&#160;&#160;&#160;&#160;&#160;&#160;&#160;&#160;&#160;&#160;&#160;&#160;&#160;&#160;&#160;&#160;&#160;</text><text class="terminal-489419623-r7" x="390.4" y="288.4" textLength="97.6" clip-path="url(#terminal-489419623-line-11)">25-01-30</text><text class="terminal-489419623-r7" x="512.4" y="288.4" textLength="97.6" clip-path="url(#terminal-489419623-line-11)">25-02-01</text><text class="terminal-489419623-r7" x="634.4" y="288.4" textLength="73.2" clip-path="url(#terminal-489419623-line-11)">4h39m&#160;</text><text class="terminal-489419623-r2" x="817.4" y="288.4" textLength="12.2" clip-path="url(#terminal-489419623-line-11)">
</text><text class="terminal-489419623-r3" x="0" y="312.8" textLength="36.6" clip-path="url(#terminal-489419623-line-12)">&#160;l&#160;</text><text class="terminal-489419623-r8" x="61" y="312.8" textLength="305" clip-path="url(#terminal-489419623-line-12)">Task&#160;F&#160;&#160;&#160;&#160;&#160;&#160;&#160;&#160;&#160;&#160;&#160;&#160;&#160;&#160;&#160;&#160;&#160;&#160;&#160;</text><text class="terminal-489419623-r8" x="390.4" y="312.8" textLength="97.6" clip-path="url(#terminal-489419623-line-12)">25-01-26</text><text class="terminal-489419623-r8" x="512.4" y="312.8" textLength="97.6" clip-path="url(#terminal-489419623-line-12)">25-02-02</text><text class="terminal-489419623-r8" x="634.4" y="312.8" textLength="73.2" clip-path="url(#terminal-489419623-line-12)">1d9h&#160;&#160;</text><text class="terminal-489419623-r2" x="817.4" y="312.8" textLength="12.2" clip-path="url(#terminal-489419623-line-12)">
</text><text class="terminal-489419623-r2" x="817.4" y="337.2" textLength="12.2" clip-path="url(#terminal-489419623-line-13)">
</text><text class="terminal-489419623-r2" x="817.4" y="361.6" textLength="12.2" clip-path="url(#terminal-489419623-line-14)">
</text><text class="terminal-489419623-r2" x="817.4" y="386" textLength="12.2" clip-path="url(#terminal-489419623-line-15)">
</text><text class="terminal-489419623-r2" x="817.4" y="410.4" textLength="12.2" clip-path="url(#terminal-489419623-line-16)">
</text><text class="terminal-489419623-r2" x="817.4" y="434.8" textLength="12.2" clip-path="url(#terminal-489419623-line-17)">
</text><text class="terminal-489419623-r2" x="817.4" y="459.2" textLength="12.2" clip-path="url(#terminal-489419623-line-18)">
</text><text class="terminal-489419623-r2" x="817.4" y="483.6" textLength="12.2" clip-path="url(#terminal-489419623-line-19)">
</text><text class="terminal-489419623-r2" x="817.4" y="508" textLength="12.2" clip-path="url(#terminal-489419623-line-20)">
</text><text class="terminal-489419623-r2" x="817.4" y="532.4" textLength="12.2" clip-path="url(#terminal-489419623-line-21)">
</text><text class="terminal-489419623-r2" x="817.4" y="556.8" textLength="12.2" clip-path="url(#terminal-489419623-line-22)">
</text><text class="terminal-489419623-r2" x="817.4" y="581.2" textLength="12.2" clip-path="url(#terminal-489419623-line-23)">
</text><text class="terminal-489419623-r2" x="817.4" y="605.6" textLength="12.2" clip-path="url(#terminal-489419623-line-24)">
</text><text class="terminal-489419623-r9" x="0" y="630" textLength="12.2" clip-path="url(#terminal-489419623-line-25)">?</text><text class="terminal-489419623-r10" x="12.2" y="630" textLength="73.2" clip-path="url(#terminal-489419623-line-25)">&#160;Help&#160;</text><text class="terminal-489419623-r9" x="85.4" y="630" textLength="12.2" clip-path="url(#terminal-489419623-line-25)">/</text><text class="terminal-489419623-r10" x="97.6" y="630" textLength="85.4" clip-path="url(#terminal-489419623-line-25)">&#160;Search</text>
    </g>
    </g>
</svg>
